<?xml version="1.0" encoding="UTF-8" standalone="no"?>
<svg id="Layer_6" xmlns:rdf="http://www.w3.org/1999/02/22-rdf-syntax-ns#" xmlns="http://www.w3.org/2000/svg" enable-background="new 0 0 100 100" xml:space="preserve" height="64" viewBox="0 0 64 64" width="64" version="1.1" y="0px" x="0px" xmlns:cc="http://creativecommons.org/ns#" xmlns:dc="http://purl.org/dc/elements/1.1/"><metadata id="metadata13"><rdf:RDF><cc:Work rdf:about=""><dc:format>image/svg+xml</dc:format><dc:type rdf:resource="http://purl.org/dc/dcmitype/StillImage"/><dc:title/></cc:Work></rdf:RDF></metadata><g id="g3784" fill="#555" transform="translate(0.75562919,1.6185776)"><path id="path3779" d="m0.53337,8.9866,0,42.801,8.6997,0,0-18.097,4.5729,0c1.7854,0,3.0661,0.46376,3.8201,1.4221,0.75308,0.96098,1.1745,2.2793,1.2548,3.9595l0.22307,8.2257c0.03926,0.84053,0.12782,1.6469,0.25095,2.4259,0.12046,0.78074,0.38859,1.4656,0.83651,2.0634h9.5083v-0.36249c-0.80484-0.439-1.3132-1.2528-1.5336-2.4538-0.22128-1.1992-0.35022-2.9363-0.39037-5.2143-0.04015-2.2798-0.15258-4.1861-0.3346-5.744-0.18024-1.5597-0.49321-2.856-0.97593-3.8758-0.48094-1.019-1.18-1.8024-2.0634-2.3422-0.88425-0.53983-2.0547-0.91458-3.5412-1.1153v-0.11154c2.4511-0.52109,4.2441-1.694,5.4094-3.5133,1.1653-1.8194,1.7567-4.177,1.7567-7.0546,0-3.7172-1.0029-6.49-3.0114-8.3093-2.011-1.8191-4.833-2.7044-8.45-2.7044h-16.033zm8.6997,6.3296,4.0989,0c4.0179,0,6.0229,1.9829,6.0229,5.9392,0,2.3199-0.57574,3.9836-1.7009,4.9633-1.1252,0.97883-2.7342,1.4778-4.8239,1.4778h-3.597v-12.38z"/><path id="path7" d="m61.955,51.789h-6.3887v-3.9564h-0.12046c-1.0458,1.6784-2.3003,2.8981-3.7663,3.6566-1.4678,0.76022-3.2256,1.1394-5.2734,1.1394-2.651,0-4.8121-0.48986-6.4797-1.4687-1.6677-0.97883-2.9731-2.4279-3.9162-4.3463-0.94582-1.9184-1.5793-4.2892-1.8997-7.107-0.32211-2.8196-0.48183-6.0853-0.48183-9.8044,0-3.5986,0.2311-6.7563,0.69241-9.4769,0.4622-2.717,1.2545-4.9861,2.3815-6.8054,1.1243-1.8176,2.6117-3.1872,4.4587-4.1081,1.847-0.91815,4.1589-1.3786,6.9312-1.3786,4.7407,0,8.1563,1.168,10.245,3.5084,2.0897,2.3387,3.1337,5.6865,3.1337,10.045h-8.316c0-0.76022-0.09101-1.5704-0.27214-2.4297-0.17935-0.85926-0.47202-1.6382-0.87354-2.3387-0.40152-0.69865-0.91369-1.2795-1.5365-1.7408-0.62192-0.45685-1.3768-0.68795-2.2592-0.68795-2.0906,0-3.5959,1.1591-4.5203,3.4781s-1.3857,6.1567-1.3857,11.514c0,2.5983,0.08031,4.9281,0.24002,6.9865,0.16061,2.0603,0.45417,3.8181,0.87443,5.2769,0.42205,1.4589,1.0243,2.5778,1.8069,3.3585,0.7852,0.77896,1.7988,1.1698,3.0445,1.1698,0.52109,0,1.0948-0.14098,1.7167-0.42205,0.62281-0.2775,1.2064-0.69687,1.748-1.2581,0.5425-0.55946,0.994-1.267,1.3563-2.1281,0.36137-0.85926,0.54251-1.8684,0.54251-3.0293v-4.3778h-5.7242v-6.3575h14.043v23.088z"/></g></svg>
